<?xml version="1.0" encoding="UTF-8" standalone="no"?>
<svg
   xmlns:dc="http://purl.org/dc/elements/1.1/"
   xmlns:cc="http://creativecommons.org/ns#"
   xmlns:rdf="http://www.w3.org/1999/02/22-rdf-syntax-ns#"
   xmlns:svg="http://www.w3.org/2000/svg"
   xmlns="http://www.w3.org/2000/svg"
   xmlns:sodipodi="http://sodipodi.sourceforge.net/DTD/sodipodi-0.dtd"
   xmlns:inkscape="http://www.inkscape.org/namespaces/inkscape"
   version="1.1"
   id="svg1191"
   xml:space="preserve"
   width="24"
   height="24"
   viewBox="0 0 24 24"
   sodipodi:docname="ic_launcher.svg"
   inkscape:version="1.0 (4035a4fb49, 2020-05-01)"><style
     id="style1211"></style><metadata
     id="metadata1197"><rdf:RDF><cc:Work
         rdf:about=""><dc:format>image/svg+xml</dc:format><dc:type
           rdf:resource="http://purl.org/dc/dcmitype/StillImage" /><dc:title /></cc:Work></rdf:RDF></metadata><defs
     id="defs1195" /><sodipodi:namedview
     inkscape:document-rotation="0"
     pagecolor="#bb1d24"
     bordercolor="#666666"
     borderopacity="1"
     objecttolerance="10"
     gridtolerance="10"
     guidetolerance="10"
     inkscape:pageopacity="1"
     inkscape:pageshadow="2"
     inkscape:window-width="1920"
     inkscape:window-height="958"
     id="namedview1193"
     showgrid="false"
     lock-margins="true"
     fit-margin-top="10"
     fit-margin-left="10"
     fit-margin-right="10"
     fit-margin-bottom="10"
     inkscape:zoom="10.847499"
     inkscape:cx="13.117666"
     inkscape:cy="10.304941"
     inkscape:window-x="1920"
     inkscape:window-y="96"
     inkscape:window-maximized="1"
     inkscape:current-layer="svg1191" /><path
     id="path1205"
     style="fill:#ffffff;fill-opacity:1;fill-rule:nonzero;stroke:none;stroke-width:1.33333"
     d="M 8.08868,19.088765 C 4.1737067,19.088765 1,15.915045 1,12.000018 1,8.0850583 4.1737067,4.9112717 8.08868,4.9112717 c 3.915013,0 7.088747,3.1737866 7.088747,7.0887463 0,1.85616 -0.7138,3.545307 -1.881374,4.80888 -0.261973,-0.142786 -0.510893,-0.30656 -0.744786,-0.488706 1.08256,-1.117947 1.749026,-2.641067 1.749026,-4.320174 0,-3.4305463 -2.781013,-6.211613 -6.211613,-6.211613 -3.43056,0 -6.2116267,2.7810667 -6.2116267,6.211613 0,3.11312 2.29024,5.691134 5.2777067,6.141694 0.4564933,0.361173 0.9541333,0.672506 1.4849467,0.925866 -0.1818667,0.01387 -0.3656,0.0212 -0.5510267,0.0212 z m 3.91132,0 c -3.915,0 -7.0887467,-3.17372 -7.0887467,-7.088747 0,-2.183053 0.9871467,-4.135333 2.5391734,-5.435693 0.2094133,-0.0244 0.4223066,-0.037333 0.6382533,-0.037333 0.28988,0 0.5744267,0.022667 0.85208,0.066267 -1.88216,1.0672134 -3.1523067,3.0884934 -3.1523067,5.4067603 0,3.110159 2.2857334,5.686359 5.2690267,6.140506 0.45728,0.36192 0.955827,0.67384 1.487613,0.9276 -0.179946,0.01373 -0.36168,0.02067 -0.545093,0.02067 z m 3.911253,0 c -3.91496,0 -7.0886663,-3.17372 -7.0886663,-7.088747 0,-1.85616 0.7137466,-3.5453063 1.8813603,-4.8088797 0.262053,0.1428534 0.511053,0.3065067 0.744933,0.48864 -1.082613,1.11784 -1.7491733,2.6411597 -1.7491733,4.3202397 0,3.43056 2.7809863,6.211627 6.2115463,6.211627 3.430547,0 6.211614,-2.781067 6.211614,-6.211627 0,-3.110173 -2.28576,-5.686373 -5.269014,-6.1405197 -0.457346,-0.3618533 -0.95592,-0.6738 -1.487706,-0.9274933 0.17996,-0.013733 0.361746,-0.0208 0.545106,-0.0208 3.915014,0 7.088747,3.17376 7.088747,7.088733 0,3.915027 -3.173733,7.08876 -7.088747,7.08876 z m 0,-1.61572 c -0.28984,0 -0.574386,-0.02267 -0.852106,-0.06613 1.882173,-1.067227 3.152466,-3.088534 3.152466,-5.40684 0,-3.1101737 -2.285853,-5.6863737 -5.269093,-6.1405203 -0.457293,-0.3619097 -0.955893,-0.6737764 -1.487627,-0.9274964 0.17996,-0.013733 0.36168,-0.0208 0.545107,-0.0208 3.915013,0 7.088653,3.1738 7.088653,7.0887597 0,2.183147 -0.987146,4.13548 -2.539146,5.435774 -0.209387,0.0244 -0.42232,0.03733 -0.638254,0.03733 z" /></svg>
